<?xml version="1.0" encoding="UTF-8"?>
<!--Generator: Apple Native CoreSVG 341-->
<!DOCTYPE svg
PUBLIC "-//W3C//DTD SVG 1.1//EN"
       "http://www.w3.org/Graphics/SVG/1.1/DTD/svg11.dtd">
<svg version="1.1" xmlns="http://www.w3.org/2000/svg" xmlns:xlink="http://www.w3.org/1999/xlink" viewBox="0 0 3300 2200">
 <!--glyph: "", point size: 100.0, font version: "20.0d10e1", template writer version: "138.0.0"-->
 <style>.monochrome-0 {-sfsymbols-motion-group:1;-sfsymbols-layer-tags:-6c2d63a379b7f581 ac3389c0c14fb19 menucard}
.monochrome-1 {opacity:0.0;-sfsymbols-clear-behind:true;-sfsymbols-motion-group:0;-sfsymbols-layer-tags:-6c2d63a379b7f581 _slash}
.monochrome-2 {-sfsymbols-motion-group:0;-sfsymbols-layer-tags:-6c2d63a379b7f581 _slash}

.multicolor-0:tintColor {-sfsymbols-motion-group:1;-sfsymbols-layer-tags:-6c2d63a379b7f581 ac3389c0c14fb19 menucard}
.multicolor-1:tintColor {opacity:0.0;-sfsymbols-clear-behind:true;-sfsymbols-motion-group:0;-sfsymbols-layer-tags:-6c2d63a379b7f581 _slash}
.multicolor-2:tintColor {-sfsymbols-motion-group:0;-sfsymbols-layer-tags:-6c2d63a379b7f581 _slash}

.hierarchical-0:secondary {-sfsymbols-motion-group:1;-sfsymbols-layer-tags:-6c2d63a379b7f581 ac3389c0c14fb19 menucard}
.hierarchical-1:primary {opacity:0.0;-sfsymbols-clear-behind:true;-sfsymbols-motion-group:0;-sfsymbols-layer-tags:-6c2d63a379b7f581 _slash}
.hierarchical-2:primary {-sfsymbols-motion-group:0;-sfsymbols-layer-tags:-6c2d63a379b7f581 _slash}

.SFSymbolsPreviewWireframe {fill:none;opacity:1.0;stroke:black;stroke-width:0.5}
</style>
 <g id="Notes">
  <rect height="2200" id="artboard" style="fill:white;opacity:1" width="3300" x="0" y="0"/>
  <line style="fill:none;stroke:black;opacity:1;stroke-width:0.5;" x1="263" x2="3036" y1="292" y2="292"/>
  <text style="stroke:none;fill:black;font-family:sans-serif;font-size:13;font-weight:bold;" transform="matrix(1 0 0 1 263 322)">Weight/Scale Variations</text>
  <text style="stroke:none;fill:black;font-family:sans-serif;font-size:13;text-anchor:middle;" transform="matrix(1 0 0 1 559.711 322)">Ultralight</text>
  <text style="stroke:none;fill:black;font-family:sans-serif;font-size:13;text-anchor:middle;" transform="matrix(1 0 0 1 856.422 322)">Thin</text>
  <text style="stroke:none;fill:black;font-family:sans-serif;font-size:13;text-anchor:middle;" transform="matrix(1 0 0 1 1153.13 322)">Light</text>
  <text style="stroke:none;fill:black;font-family:sans-serif;font-size:13;text-anchor:middle;" transform="matrix(1 0 0 1 1449.84 322)">Regular</text>
  <text style="stroke:none;fill:black;font-family:sans-serif;font-size:13;text-anchor:middle;" transform="matrix(1 0 0 1 1746.56 322)">Medium</text>
  <text style="stroke:none;fill:black;font-family:sans-serif;font-size:13;text-anchor:middle;" transform="matrix(1 0 0 1 2043.27 322)">Semibold</text>
  <text style="stroke:none;fill:black;font-family:sans-serif;font-size:13;text-anchor:middle;" transform="matrix(1 0 0 1 2339.98 322)">Bold</text>
  <text style="stroke:none;fill:black;font-family:sans-serif;font-size:13;text-anchor:middle;" transform="matrix(1 0 0 1 2636.69 322)">Heavy</text>
  <text style="stroke:none;fill:black;font-family:sans-serif;font-size:13;text-anchor:middle;" transform="matrix(1 0 0 1 2933.4 322)">Black</text>
  <line style="fill:none;stroke:black;opacity:1;stroke-width:0.5;" x1="263" x2="3036" y1="1903" y2="1903"/>
  <g transform="matrix(0.2 0 0 0.2 263 1933)">
   <path d="m46.2402 4.15039c21.7773 0 39.4531-17.627 39.4531-39.4043s-17.6758-39.4043-39.4531-39.4043c-21.7285 0-39.4043 17.627-39.4043 39.4043s17.6758 39.4043 39.4043 39.4043Zm0-7.42188c-17.6758 0-31.9336-14.3066-31.9336-31.9824s14.2578-31.9824 31.9336-31.9824 31.9824 14.3066 31.9824 31.9824-14.3066 31.9824-31.9824 31.9824Zm-17.9688-31.9824c0 2.14844 1.51367 3.61328 3.75977 3.61328h10.498v10.5957c0 2.19727 1.46484 3.71094 3.61328 3.71094 2.24609 0 3.71094-1.51367 3.71094-3.71094v-10.5957h10.5957c2.19727 0 3.71094-1.46484 3.71094-3.61328 0-2.19727-1.51367-3.71094-3.71094-3.71094h-10.5957v-10.5469c0-2.24609-1.46484-3.75977-3.71094-3.75977-2.14844 0-3.61328 1.51367-3.61328 3.75977v10.5469h-10.498c-2.24609 0-3.75977 1.51367-3.75977 3.71094Z"/>
  </g>
  <g transform="matrix(0.2 0 0 0.2 281.506 1933)">
   <path d="m58.5449 14.5508c27.4902 0 49.8047-22.3145 49.8047-49.8047s-22.3145-49.8047-49.8047-49.8047-49.8047 22.3145-49.8047 49.8047 22.3145 49.8047 49.8047 49.8047Zm0-8.30078c-22.9492 0-41.5039-18.5547-41.5039-41.5039s18.5547-41.5039 41.5039-41.5039 41.5039 18.5547 41.5039 41.5039-18.5547 41.5039-41.5039 41.5039Zm-22.6562-41.5039c0 2.39258 1.66016 4.00391 4.15039 4.00391h14.3555v14.4043c0 2.44141 1.66016 4.15039 4.05273 4.15039 2.44141 0 4.15039-1.66016 4.15039-4.15039v-14.4043h14.4043c2.44141 0 4.15039-1.61133 4.15039-4.00391 0-2.44141-1.70898-4.15039-4.15039-4.15039h-14.4043v-14.3555c0-2.49023-1.70898-4.19922-4.15039-4.19922-2.39258 0-4.05273 1.70898-4.05273 4.19922v14.3555h-14.3555c-2.49023 0-4.15039 1.70898-4.15039 4.15039Z"/>
  </g>
  <g transform="matrix(0.2 0 0 0.2 304.924 1933)">
   <path d="m74.8535 28.3203c35.1074 0 63.623-28.4668 63.623-63.5742s-28.5156-63.623-63.623-63.623-63.5742 28.5156-63.5742 63.623 28.4668 63.5742 63.5742 63.5742Zm0-9.08203c-30.127 0-54.4922-24.3652-54.4922-54.4922s24.3652-54.4922 54.4922-54.4922 54.4922 24.3652 54.4922 54.4922-24.3652 54.4922-54.4922 54.4922Zm-28.8574-54.4922c0 2.58789 1.85547 4.39453 4.58984 4.39453h19.7266v19.7754c0 2.68555 1.85547 4.58984 4.44336 4.58984 2.68555 0 4.54102-1.85547 4.54102-4.58984v-19.7754h19.7754c2.68555 0 4.58984-1.80664 4.58984-4.39453 0-2.73438-1.85547-4.58984-4.58984-4.58984h-19.7754v-19.7266c0-2.73438-1.85547-4.63867-4.54102-4.63867-2.58789 0-4.44336 1.9043-4.44336 4.63867v19.7266h-19.7266c-2.73438 0-4.58984 1.85547-4.58984 4.58984Z"/>
  </g>
  <text style="stroke:none;fill:black;font-family:sans-serif;font-size:13;font-weight:bold;" transform="matrix(1 0 0 1 263 1953)">Design Variations</text>
  <text style="stroke:none;fill:black;font-family:sans-serif;font-size:13;" transform="matrix(1 0 0 1 263 1971)">Symbols are supported in up to nine weights and three scales.</text>
  <text style="stroke:none;fill:black;font-family:sans-serif;font-size:13;" transform="matrix(1 0 0 1 263 1989)">For optimal layout with text and other symbols, vertically align</text>
  <text style="stroke:none;fill:black;font-family:sans-serif;font-size:13;" transform="matrix(1 0 0 1 263 2007)">symbols with the adjacent text.</text>
  <line style="fill:none;stroke:#00AEEF;stroke-width:0.5;opacity:1.0;" x1="776" x2="776" y1="1919" y2="1933"/>
  <g transform="matrix(0.2 0 0 0.2 776 1933)">
   <path d="m16.5527 0.78125c2.58789 0 3.85742-0.976562 4.78516-3.71094l6.29883-17.2363h28.8086l6.29883 17.2363c0.927734 2.73438 2.19727 3.71094 4.73633 3.71094 2.58789 0 4.24805-1.5625 4.24805-4.00391 0-0.830078-0.146484-1.61133-0.537109-2.63672l-22.9004-60.9863c-1.12305-2.97852-3.125-4.49219-6.25-4.49219-3.02734 0-5.07812 1.46484-6.15234 4.44336l-22.9004 61.084c-0.390625 1.02539-0.537109 1.80664-0.537109 2.63672 0 2.44141 1.5625 3.95508 4.10156 3.95508Zm13.4766-28.3691 11.8652-32.8613h0.244141l11.8652 32.8613Z"/>
  </g>
  <line style="fill:none;stroke:#00AEEF;stroke-width:0.5;opacity:1.0;" x1="792.836" x2="792.836" y1="1919" y2="1933"/>
  <text style="stroke:none;fill:black;font-family:sans-serif;font-size:13;font-weight:bold;" transform="matrix(1 0 0 1 776 1953)">Margins</text>
  <text style="stroke:none;fill:black;font-family:sans-serif;font-size:13;" transform="matrix(1 0 0 1 776 1971)">Leading and trailing margins on the left and right side of each symbol</text>
  <text style="stroke:none;fill:black;font-family:sans-serif;font-size:13;" transform="matrix(1 0 0 1 776 1989)">can be adjusted by modifying the x-location of the margin guidelines.</text>
  <text style="stroke:none;fill:black;font-family:sans-serif;font-size:13;" transform="matrix(1 0 0 1 776 2007)">Modifications are automatically applied proportionally to all</text>
  <text style="stroke:none;fill:black;font-family:sans-serif;font-size:13;" transform="matrix(1 0 0 1 776 2025)">scales and weights.</text>
  <g transform="matrix(0.2 0 0 0.2 1289 1933)">
   <path d="m14.209 9.32617 8.49609 8.54492c4.29688 4.3457 9.22852 4.05273 13.8672-1.07422l53.4668-58.9355-4.83398-4.88281-53.0762 58.3984c-1.75781 2.00195-3.41797 2.49023-5.76172 0.146484l-5.85938-5.81055c-2.34375-2.29492-1.80664-4.00391 0.195312-5.81055l57.373-54.0039-4.88281-4.83398-57.959 54.4434c-4.93164 4.58984-5.32227 9.47266-1.02539 13.8184Zm32.0801-90.9668c-2.09961 2.05078-2.24609 4.93164-1.07422 6.88477 1.17188 1.80664 3.4668 2.97852 6.68945 2.14844 7.32422-1.70898 14.9414-2.00195 22.0703 2.68555l-2.92969 7.27539c-1.70898 4.15039-0.830078 7.08008 1.85547 9.81445l11.4746 11.5723c2.44141 2.44141 4.49219 2.53906 7.32422 2.05078l5.32227-0.976562 3.32031 3.36914-0.195312 2.7832c-0.195312 2.49023 0.439453 4.39453 2.88086 6.78711l3.80859 3.71094c2.39258 2.39258 5.46875 2.53906 7.8125 0.195312l14.5508-14.5996c2.34375-2.34375 2.24609-5.32227-0.146484-7.71484l-3.85742-3.80859c-2.39258-2.39258-4.24805-3.17383-6.64062-2.97852l-2.88086 0.244141-3.22266-3.17383 1.2207-5.61523c0.634766-2.83203-0.146484-5.0293-3.07617-7.95898l-10.9863-10.9375c-16.6992-16.6016-38.8672-16.2109-53.3203-1.75781Zm7.4707 1.85547c12.1582-8.88672 28.6133-7.37305 39.7461 3.75977l12.1582 12.0605c1.17188 1.17188 1.36719 2.09961 1.02539 3.80859l-1.61133 7.42188 7.51953 7.42188 4.93164-0.292969c1.26953-0.0488281 1.66016 0.0488281 2.63672 1.02539l2.88086 2.88086-12.207 12.207-2.88086-2.88086c-0.976562-0.976562-1.12305-1.36719-1.07422-2.68555l0.341797-4.88281-7.4707-7.42188-7.61719 1.26953c-1.61133 0.341797-2.34375 0.195312-3.56445-0.976562l-10.0098-10.0098c-1.26953-1.17188-1.41602-2.00195-0.634766-3.85742l4.39453-10.4492c-7.8125-7.27539-17.9688-10.4004-28.125-7.42188-0.78125 0.195312-1.07422-0.439453-0.439453-0.976562Z"/>
  </g>
  <text style="stroke:none;fill:black;font-family:sans-serif;font-size:13;font-weight:bold;" transform="matrix(1 0 0 1 1289 1953)">Exporting</text>
  <text style="stroke:none;fill:black;font-family:sans-serif;font-size:13;" transform="matrix(1 0 0 1 1289 1971)">Symbols should be outlined when exporting to ensure the</text>
  <text style="stroke:none;fill:black;font-family:sans-serif;font-size:13;" transform="matrix(1 0 0 1 1289 1989)">design is preserved when submitting to Xcode.</text>
  <text id="template-version" style="stroke:none;fill:black;font-family:sans-serif;font-size:13;text-anchor:end;" transform="matrix(1 0 0 1 3036 1933)">Template v.6.0</text>
  <text style="stroke:none;fill:black;font-family:sans-serif;font-size:13;text-anchor:end;" transform="matrix(1 0 0 1 3036 1951)">Requires Xcode 16 or greater</text>
  <text id="descriptive-name" style="stroke:none;fill:black;font-family:sans-serif;font-size:13;text-anchor:end;" transform="matrix(1 0 0 1 3036 1969)">Generated from </text>
  <text style="stroke:none;fill:black;font-family:sans-serif;font-size:13;text-anchor:end;" transform="matrix(1 0 0 1 3036 1987)">Typeset at 100.0 points</text>
  <text style="stroke:none;fill:black;font-family:sans-serif;font-size:13;" transform="matrix(1 0 0 1 263 726)">Small</text>
  <text style="stroke:none;fill:black;font-family:sans-serif;font-size:13;" transform="matrix(1 0 0 1 263 1156)">Medium</text>
  <text style="stroke:none;fill:black;font-family:sans-serif;font-size:13;" transform="matrix(1 0 0 1 263 1586)">Large</text>
 </g>
 <g id="Guides">
  <g id="H-reference" style="fill:#27AAE1;stroke:none;" transform="matrix(1 0 0 1 339 696)">
   <path d="M0.993654 0L3.63775 0L29.3281-67.1323L30.0303-67.1323L30.0303-70.459L28.1226-70.459ZM11.6885-24.4799L46.9815-24.4799L46.2315-26.7285L12.4385-26.7285ZM55.1196 0L57.7637 0L30.6382-70.459L29.4326-70.459L29.4326-67.1323Z"/>
  </g>
  <line id="Baseline-S" style="fill:none;stroke:#27AAE1;opacity:1;stroke-width:0.5;" x1="263" x2="3036" y1="696" y2="696"/>
  <line id="Capline-S" style="fill:none;stroke:#27AAE1;opacity:1;stroke-width:0.5;" x1="263" x2="3036" y1="625.541" y2="625.541"/>
  <g id="H-reference" style="fill:#27AAE1;stroke:none;" transform="matrix(1 0 0 1 339 1126)">
   <path d="M0.993654 0L3.63775 0L29.3281-67.1323L30.0303-67.1323L30.0303-70.459L28.1226-70.459ZM11.6885-24.4799L46.9815-24.4799L46.2315-26.7285L12.4385-26.7285ZM55.1196 0L57.7637 0L30.6382-70.459L29.4326-70.459L29.4326-67.1323Z"/>
  </g>
  <line id="Baseline-M" style="fill:none;stroke:#27AAE1;opacity:1;stroke-width:0.5;" x1="263" x2="3036" y1="1126" y2="1126"/>
  <line id="Capline-M" style="fill:none;stroke:#27AAE1;opacity:1;stroke-width:0.5;" x1="263" x2="3036" y1="1055.54" y2="1055.54"/>
  <g id="H-reference" style="fill:#27AAE1;stroke:none;" transform="matrix(1 0 0 1 339 1556)">
   <path d="M0.993654 0L3.63775 0L29.3281-67.1323L30.0303-67.1323L30.0303-70.459L28.1226-70.459ZM11.6885-24.4799L46.9815-24.4799L46.2315-26.7285L12.4385-26.7285ZM55.1196 0L57.7637 0L30.6382-70.459L29.4326-70.459L29.4326-67.1323Z"/>
  </g>
  <line id="Baseline-L" style="fill:none;stroke:#27AAE1;opacity:1;stroke-width:0.5;" x1="263" x2="3036" y1="1556" y2="1556"/>
  <line id="Capline-L" style="fill:none;stroke:#27AAE1;opacity:1;stroke-width:0.5;" x1="263" x2="3036" y1="1485.54" y2="1485.54"/>
  <line id="right-margin-Black-S" style="fill:none;stroke:#FF3B30;stroke-width:0.5;opacity:1.0;" x1="2979.44" x2="2979.44" y1="600.785" y2="720.121"/>
  <line id="left-margin-Black-S" style="fill:none;stroke:#FF3B30;stroke-width:0.5;opacity:1.0;" x1="2887.36" x2="2887.36" y1="600.785" y2="720.121"/>
  <line id="right-margin-Regular-S" style="fill:none;stroke:#FF3B30;stroke-width:0.5;opacity:1.0;" x1="1491.84" x2="1491.84" y1="600.785" y2="720.121"/>
  <line id="left-margin-Regular-S" style="fill:none;stroke:#FF3B30;stroke-width:0.5;opacity:1.0;" x1="1407.85" x2="1407.85" y1="600.785" y2="720.121"/>
  <line id="right-margin-Ultralight-S" style="fill:none;stroke:#00AEEF;stroke-width:0.5;opacity:1.0;" x1="599.297" x2="599.297" y1="600.785" y2="720.121"/>
  <line id="left-margin-Ultralight-S" style="fill:none;stroke:#00AEEF;stroke-width:0.5;opacity:1.0;" x1="520.126" x2="520.126" y1="600.785" y2="720.121"/>
 </g>
 <g id="Symbols">
  <g id="Black-S" transform="matrix(1 0 0 1 2887.36 696)">
   <path class="monochrome-0 multicolor-0:tintColor hierarchical-0:secondary SFSymbolsPreviewWireframe" d="M20.9961 5.27344L64.8438 13.0371C75.3418 14.8926 82.3242 8.49609 82.3242-2.83203L82.3242-49.0723C82.3242-59.5703 77.8809-64.5508 66.6992-66.5039L24.3164-73.9746C16.0156-75.4395 9.76562-70.166 9.76562-61.7188L9.76562-7.76367C9.76562-0.732422 13.8672 4.00391 20.9961 5.27344ZM26.8066-8.88672C25.3906-9.13086 24.9023-10.2051 24.9023-11.2305L24.9023-56.0547C24.9023-57.6172 25.8301-58.4961 27.3926-58.2031L64.9414-51.5625C66.4062-51.3184 67.1875-50.4883 67.1875-49.1699L67.1875-3.95508C67.1875-2.63672 66.3086-1.9043 64.9902-2.14844ZM66.2109-53.4668L78.9062-53.4668L78.9062-66.1621C78.9062-77.2461 70.9961-83.1055 58.4961-80.9082L18.7988-73.9258L22.1191-62.3047L61.8164-69.2871C64.2578-69.7266 66.2109-68.8477 66.2109-66.8945ZM33.1543-40.7227L56.9824-36.4746C59.6191-35.9863 61.6699-37.793 61.6699-40.4297C61.6699-42.627 60.498-44.0918 58.3496-44.4824L34.7168-48.6816C31.9824-49.1699 29.8828-47.4121 29.8828-44.8242C29.8828-42.6758 31.1035-41.0645 33.1543-40.7227ZM33.1543-26.6602L56.9824-22.3633C59.6191-21.875 61.6699-23.7305 61.6699-26.3672C61.6699-28.5645 60.498-29.9805 58.3496-30.3711L34.7168-34.5703C31.9824-35.0586 29.8828-33.3008 29.8828-30.7129C29.8828-28.6133 31.2012-27.002 33.1543-26.6602Z"/>
   <path class="monochrome-1 multicolor-1:tintColor hierarchical-1:primary SFSymbolsPreviewWireframe" d="M90.0118-4.48836C93.6629-0.837264 93.6629 5.09118 90.0118 8.74227C86.3607 12.3934 80.4322 12.3934 76.7811 8.74227L2.06823-65.9706C-1.58286-69.6217-1.58286-75.5502 2.06823-79.2013C5.71933-82.8524 11.6478-82.8524 15.2989-79.2013Z" data-clipstroke-keyframes="0 0 0.0 0.5 0.6082697 0 1.0 0.10826972 0.0"/>
   <path class="monochrome-2 multicolor-2:tintColor hierarchical-2:primary SFSymbolsPreviewWireframe" d="M85.8617-0.338247C87.2222 1.02234 87.2222 3.23158 85.8617 4.59217C84.5011 5.95275 82.2918 5.95275 80.9312 4.59217L6.21834-70.1207C4.85776-71.4813 4.85776-73.6906 6.21834-75.0511C7.57893-76.4117 9.78817-76.4117 11.1488-75.0511Z" data-clipstroke-keyframes="0 0 0.0 0.5 0.5458696 0 1.0 0.04586959 0.0"/>
  </g>
  <g id="Regular-S" transform="matrix(1 0 0 1 1407.85 696)">
   <path class="monochrome-0 multicolor-0:tintColor hierarchical-0:secondary SFSymbolsPreviewWireframe" d="M17.6758 1.31836L61.4258 9.0332C69.4336 10.4492 74.2188 5.95703 74.2188-2.83203L74.2188-50.0488C74.2188-58.3008 70.0195-61.1328 61.9629-62.5L19.6289-69.9707C13.7207-71.0449 9.76562-67.627 9.76562-61.7188L9.76562-7.76367C9.76562-2.63672 12.4512 0.390625 17.6758 1.31836ZM19.3848-5.61523C17.6758-5.95703 16.7969-6.93359 16.7969-8.78906L16.7969-60.5469C16.7969-62.3047 18.0176-63.2324 19.9219-62.8906L61.6211-55.5664C65.2344-54.9316 67.1875-53.5156 67.1875-50.0977L67.1875-3.66211C67.1875 0.390625 64.8926 2.44141 61.084 1.75781ZM63.7695-57.373L70.8008-57.373L70.8008-66.2109C70.8008-74.6582 65.1855-78.7109 55.7129-77.002L15.7227-69.9707L18.4082-63.916L58.2031-70.459C61.7188-70.9961 63.7695-69.5312 63.7695-66.5039ZM26.3672-46.0449L55.0781-40.9668C57.0312-40.6738 58.3008-41.8945 58.3008-43.7012C58.3008-45.3613 57.5195-46.1914 56.0059-46.4844L27.5391-51.4648C25.5859-51.8066 24.1699-50.6836 24.1699-48.877C24.1699-47.3633 24.9512-46.2891 26.3672-46.0449ZM26.3672-30.957L55.0781-25.8789C57.0312-25.5859 58.3008-26.8066 58.3008-28.6133C58.3008-30.2734 57.5195-31.1035 56.0059-31.3965L27.5391-36.377C25.5859-36.7188 24.1699-35.5957 24.1699-33.7891C24.1699-32.2754 24.9512-31.2012 26.3672-30.957Z"/>
   <path class="monochrome-1 multicolor-1:tintColor hierarchical-1:primary SFSymbolsPreviewWireframe" d="M83.0483-6.06714C86.3298-2.78573 86.3298 2.54245 83.0483 5.82386C79.7669 9.10527 74.4388 9.10527 71.1574 5.82386L0.941651-64.3918C-2.33976-67.6733-2.33976-73.0014 0.941651-76.2828C4.22306-79.5643 9.55124-79.5643 12.8326-76.2828Z" data-clipstroke-keyframes="0 0 0.0 0.5 0.60452837 0 1.0 0.104528375 0.0"/>
   <path class="monochrome-2 multicolor-2:tintColor hierarchical-2:primary SFSymbolsPreviewWireframe" d="M79.5819-2.60066C80.9501-1.23245 80.9501 0.98917 79.5819 2.35738C78.2137 3.72558 75.992 3.72558 74.6238 2.35738L4.40813-67.8583C3.03992-69.2265 3.03992-71.4482 4.40813-72.8164C5.77634-74.1846 7.99796-74.1846 9.36617-72.8164Z" data-clipstroke-keyframes="0 0 0.0 0.5 0.5487678 0 1.0 0.048767686 0.0"/>
  </g>
  <g id="Ultralight-S" transform="matrix(1 0 0 1 520.126 696)">
   <path class="monochrome-0 multicolor-0:tintColor hierarchical-0:secondary SFSymbolsPreviewWireframe" d="M15.6778-0.498033L57.9292 6.94435C64.8472 8.17873 69.4053 4.50392 69.4053-2.6958L69.4053-50.3667C69.4053-56.1211 66.2959-59.1348 59.6924-60.3203L18.085-67.6548C12.9033-68.5928 9.76562-66.3101 9.76562-61.6279L9.76562-7.49121C9.76562-3.4541 11.6338-1.19872 15.6778-0.498033ZM16.0244-2.6636C13.271-3.14162 11.9834-4.70851 11.9834-7.65382L11.9834-61.228C11.9834-64.5752 14.1123-66.1841 17.7876-65.5244L59.6231-58.1548C64.8257-57.2475 67.1875-54.7871 67.1875-50.7334L67.1875-2.7085C67.1875 2.93357 63.5757 5.75632 58.2232 4.75486ZM63.7695-57.5093L65.9873-57.5093L65.9873-66.9829C65.9873-73.1597 61.7344-76.168 54.5776-74.8677L14.4512-67.7456L15.0479-65.7324L55.2969-72.7749C60.5835-73.7207 63.7695-71.5293 63.7695-66.9126ZM21.5537-48.7241L54.7148-42.9194C55.5327-42.7627 56.0303-43.3476 56.0303-43.9282C56.0303-44.544 55.6123-44.8745 55.0068-44.9859L21.772-50.8291C20.9995-50.9893 20.4917-50.4111 20.4917-49.7851C20.4917-49.2251 20.8643-48.832 21.5537-48.7241ZM21.5537-34.5444L54.7148-28.6943C55.5327-28.5376 56.0303-29.1225 56.0303-29.7485C56.0303-30.3188 55.6123-30.6948 55.0068-30.8062L21.772-36.604C20.9995-36.7642 20.4917-36.186 20.4917-35.6055C20.4917-35 20.8643-34.6523 21.5537-34.5444Z"/>
   <path class="monochrome-1 multicolor-1:tintColor hierarchical-1:primary SFSymbolsPreviewWireframe" d="M77.2717-3.06064C78.7943-1.53808 78.7943 0.934172 77.2717 2.45673C75.7492 3.97929 73.2769 3.97929 71.7544 2.45673L1.89928-67.3983C0.376719-68.9209 0.376719-71.3932 1.89928-72.9157C3.42184-74.4383 5.89409-74.4383 7.41664-72.9157Z" data-clipstroke-keyframes="0 0 0.0 0.5 0.55392593 0 1.0 0.053925958 0.0"/>
   <path class="monochrome-2 multicolor-2:tintColor hierarchical-2:primary SFSymbolsPreviewWireframe" d="M75.2208-1.00975C75.6115-0.619106 75.6115 0.0152006 75.2208 0.405845C74.8302 0.796489 74.1959 0.796489 73.8052 0.405845L3.95016-69.4492C3.55952-69.8399 3.55952-70.4742 3.95016-70.8648C4.34081-71.2555 4.97511-71.2555 5.36576-70.8648Z" data-clipstroke-keyframes="0 0 0.0 0.5 0.5139301 0 1.0 0.013930082 0.0"/>
  </g>
 </g>
</svg>
